# xmcd
#
# Track frame offsets:
#	150
#	18490
#	37625
#	65387
#	89887
#	111345
#	130260
#	148995
#
# Disc length: 2144 seconds
#
# Revision: 1
# Processed by: cddbd v1.5.2PL0 Copyright (c) Steve Scherf et al.
# Submitted via: audiograbber 1.83.01
#
DISCID=71085e08
DTITLE=Harden, Wilbur and Tommy Flanagan - The king and I - The hit musical
DYEAR=1958
DGENRE=Jazz
TTITLE0=Getting to know you
TTITLE1=My Lord and master
TTITLE2=Shall we dance
TTITLE3=We kiss in a shadow
TTITLE4=I have dreamed
TTITLE5=I whistle a happy tune
TTITLE6=Hello, young lovers
TTITLE7=Something wonderful
EXTD=
EXTT0=
EXTT1=
EXTT2=
EXTT3=
EXTT4=
EXTT5=
EXTT6=
EXTT7=
PLAYORDER=
